<svg xmlns="http://www.w3.org/2000/svg" version="1.1" xmlns:xlink="http://www.w3.org/1999/xlink" xmlns:svgjs="http://svgjs.dev/svgjs" width="100%" height="100%" viewBox="0 0 1000 600"><rect width="1000" height="600" x="0" y="0" fill="transparent"/><g><rect width="333.3333333333333" height="333.3333333333333" rx="13.333333333333334" ry="13.333333333333334" y="176.39168289537895" fill="red" transform="matrix(0.8107961024511702,0,0,0.8107961024511702,0,21.84961556044344)" x="154.16946411132812"/><path d="M300.4986339524998 399.7399702489614L301.1424107497051 413.6396965522579Q279.42957513487136 418.05834638762167 262.16465193709246 418.05834638762167Q244.87046615762245 418.05834638762167 234.24814900373477 413.3178081536553Q223.59656926815595 408.5772699196889 217.8025780933081 398.5694669813154Q212.00858691846028 388.56166404294186 209.78463070993286 375.59834035376207Q207.58993708309654 362.6350166645824 207.58993708309654 343.26318758504067Q207.58993708309654 323.89135850549894 209.78463070993286 310.72319674448113Q212.00858691846028 297.5550349834633 217.8025780933081 287.43018171832523Q223.59656926815595 277.30532845318714 234.13109867697017 272.6818405459853Q244.6656280857844 268.0583526387835 261.52087513988715 268.0583526387835Q278.37612219398994 268.0583526387835 301.1424107497051 272.6818405459853L301.1424107497051 272.6818405459853L300.4986339524998 286.3767287774438Q279.22473706303333 282.57259315759427 262.57432808076857 282.57259315759427L262.57432808076857 282.57259315759427Q239.3983633813773 282.57259315759427 231.90714246844271 296.38453171581733Q224.4451841371993 310.1964702740404 224.4451841371993 343.4680256568787L224.4451841371993 343.4680256568787Q224.4451841371993 360.1184346391434 225.82052547668337 370.2432879042815Q227.16660423447632 380.33887858772846 231.17557792616395 388.4446137161772Q235.18455161785158 396.5796114263171 242.88061060262422 400.0325960658729Q250.57666958739682 403.5148432871198 265.4127985048102 403.5148432871198Q280.2781900039147 403.5148432871198 300.4986339524998 399.7399702489614L300.4986339524998 399.7399702489614ZM434.08231937260246 415.95144050585884L418.07568718754305 415.95144050585884L418.07568718754305 349.9935813740053L343.8950426004762 349.9935813740053L343.8950426004762 415.95144050585884L327.6835723435787 415.95144050585884L327.6835723435787 270.16525852054633L343.8950426004762 270.16525852054633L343.8950426004762 335.47934085519455L418.07568718754305 335.47934085519455L418.07568718754305 270.16525852054633L434.08231937260246 270.16525852054633L434.08231937260246 415.95144050585884Z " fill="white" transform="matrix(0.8107961024511702,0,0,0.8107961024511702,0,21.84961556044344)"/><path d="M570.8361298829515 418.05835377441144L570.8361298829515 268.05835285557623L625.2419913161781 268.05835285557623Q647.5824169849408 268.05835285557623 658.7526298193221 277.27152031466164Q669.8927342633143 286.48468777374705 669.8927342633143 306.2056834786522L669.8927342633143 306.2056834786522Q669.8927342633143 320.2964101807828 665.015175020269 328.214916853134Q660.1376157772238 336.10331513509607 650.6233644142467 340.67979047424956L650.6233644142467 340.67979047424956Q674.4692096024678 348.8993810504925 674.4692096024678 375.99693240074373L674.4692096024678 375.99693240074373Q674.4692096024678 398.54811680223054 662.5462870083572 408.30323528832093Q650.6233644142467 418.05835377441144 628.0721800127599 418.05835377441144L628.0721800127599 418.05835377441144L570.8361298829515 418.05835377441144ZM626.3258933701882 349.1101397832166L626.3258933701882 349.1101397832166L587.5161781585505 349.1101397832166L587.5161781585505 403.3052424837191L627.4097954241981 403.3052424837191Q642.1629067148906 403.3052424837191 649.8405462641283 397.1330224539396Q657.5482942037554 390.9608024241602 657.5482942037554 375.36465620257115L657.5482942037554 375.36465620257115Q657.5482942037554 367.1149572359391 654.4170216032819 361.48468823316466Q651.2556406124193 355.85441923039025 646.0468890750932 353.4457479992568L646.0468890750932 353.4457479992568Q636.5326377121162 349.1101397832166 626.3258933701882 349.1101397832166ZM624.6097151180056 282.7813557558794L624.6097151180056 282.7813557558794L587.5161781585505 282.7813557558794L587.5161781585505 334.59789561563764L626.1151346374639 334.59789561563764Q639.9951026068704 334.59789561563764 646.3780813693741 327.9740497300206Q652.7911685222668 321.3803122347929 652.7911685222668 308.0422952923914Q652.7911685222668 294.70427834999 645.9565639039257 288.7428170529347Q639.1219592855846 282.7813557558794 624.6097151180056 282.7813557558794ZM705.4507433129218 418.05835377441144L688.9814537700469 418.05835377441144L730.1697318224287 268.05835285557623L766.600884193322 268.05835285557623L807.7891622457039 418.05835377441144L791.2897643124398 418.05835377441144L780.4507437723394 379.459397295498L716.2897638530222 379.459397295498L705.4507433129218 418.05835377441144ZM754.0155770106497 282.35983829043107L742.7550390051009 282.35983829043107L719.9930958708899 364.5256356624707L776.7775201448608 364.5256356624707L754.0155770106497 282.35983829043107ZM848.1042969767999 418.05835377441144L831.3941403108116 418.05835377441144L831.3941403108116 268.05835285557623L862.616541144379 268.05835285557623L920.0633500069116 403.3052424837191L924.6097169556758 403.3052424837191L924.6097169556758 268.05835285557623L941.10911488894 268.05835285557623L941.10911488894 418.05835377441144L910.5189902535453 418.05835377441144L852.2291464601159 282.7813557558794L848.1042969767999 282.7813557558794L848.1042969767999 418.05835377441144ZM994.6418330008808 352.6027130683601L994.6418330008808 418.05835377441144L977.9617847252816 418.05835377441144L977.9617847252816 268.05835285557623L994.6418330008808 268.05835285557623L994.6418330008808 337.8496017776678L1019.3608215103877 336.9764584563819L1057.7189108661878 268.05835285557623L1076.8076303729204 268.05835285557623L1033.8730656779667 343.4798707804422L1079.1861932136646 418.05835377441144L1059.4651975087595 418.05835377441144L1019.5715802431118 351.72956974707427L994.6418330008808 352.6027130683601Z " fill="white" transform="matrix(0.8107961024511702,0,0,0.8107961024511702,0,21.84961556044344)"/></g></svg>